<svg width="332" height="316" viewBox="0 0 332 316" fill="none" xmlns="http://www.w3.org/2000/svg">
<path d="M332 158C332 245.261 257.679 316 166 316C74.3207 316 0 245.261 0 158C0 70.739 74.3207 0 166 0C257.679 0 332 70.739 332 158Z" fill="#0C0C0C"/>
<ellipse cx="166" cy="158" rx="156" ry="148" fill="#65A94C"/>
<path d="M55.8537 188.049V190H53.9024V188.049H55.8537ZM55.8537 186.098V188.049H53.9024V186.098H55.8537ZM55.8537 184.146V186.098H53.9024V184.146H55.8537ZM55.8537 182.195V184.146H53.9024V182.195H55.8537ZM55.8537 180.244V182.195H53.9024V180.244H55.8537ZM55.8537 178.293V180.244H53.9024V178.293H55.8537ZM55.8537 176.341V178.293H53.9024V176.341H55.8537ZM55.8537 174.39V176.341H53.9024V174.39H55.8537ZM55.8537 172.439V174.39H53.9024V172.439H55.8537ZM55.8537 170.488V172.439H53.9024V170.488H55.8537ZM55.8537 168.537V170.488H53.9024V168.537H55.8537ZM55.8537 166.585V168.537H53.9024V166.585H55.8537ZM55.8537 164.634V166.585H53.9024V164.634H55.8537ZM55.8537 162.683V164.634H53.9024V162.683H55.8537ZM55.8537 160.732V162.683H53.9024V160.732H55.8537ZM57.8049 160.732V162.683H55.8537V160.732H57.8049ZM57.8049 162.683V164.634H55.8537V162.683H57.8049ZM57.8049 164.634V166.585H55.8537V164.634H57.8049ZM57.8049 166.585V168.537H55.8537V166.585H57.8049ZM57.8049 168.537V170.488H55.8537V168.537H57.8049ZM57.8049 170.488V172.439H55.8537V170.488H57.8049ZM57.8049 172.439V174.39H55.8537V172.439H57.8049ZM59.7561 174.39V176.341H57.8049V174.39H59.7561ZM59.7561 176.341V178.293H57.8049V176.341H59.7561ZM59.7561 178.293V180.244H57.8049V178.293H59.7561ZM59.7561 180.244V182.195H57.8049V180.244H59.7561ZM59.7561 182.195V184.146H57.8049V182.195H59.7561ZM59.7561 184.146V186.098H57.8049V184.146H59.7561ZM59.7561 186.098V188.049H57.8049V186.098H59.7561ZM59.7561 188.049V190H57.8049V188.049H59.7561ZM61.7073 188.049V190H59.7561V188.049H61.7073ZM63.6585 188.049V190H61.7073V188.049H63.6585ZM63.6585 180.244V182.195H61.7073V180.244H63.6585ZM63.6585 178.293V180.244H61.7073V178.293H63.6585ZM63.6585 176.341V178.293H61.7073V176.341H63.6585ZM63.6585 174.39V176.341H61.7073V174.39H63.6585ZM61.7073 174.39V176.341H59.7561V174.39H61.7073ZM61.7073 172.439V174.39H59.7561V172.439H61.7073ZM61.7073 176.341V178.293H59.7561V176.341H61.7073ZM61.7073 178.293V180.244H59.7561V178.293H61.7073ZM61.7073 180.244V182.195H59.7561V180.244H61.7073ZM61.7073 182.195V184.146H59.7561V182.195H61.7073ZM61.7073 184.146V186.098H59.7561V184.146H61.7073ZM61.7073 186.098V188.049H59.7561V186.098H61.7073ZM57.8049 188.049V190H55.8537V188.049H57.8049ZM57.8049 186.098V188.049H55.8537V186.098H57.8049ZM57.8049 184.146V186.098H55.8537V184.146H57.8049ZM57.8049 182.195V184.146H55.8537V182.195H57.8049ZM57.8049 180.244V182.195H55.8537V180.244H57.8049ZM57.8049 178.293V180.244H55.8537V178.293H57.8049ZM57.8049 176.341V178.293H55.8537V176.341H57.8049ZM57.8049 174.39V176.341H55.8537V174.39H57.8049ZM55.8537 141.22V143.171H53.9024V141.22H55.8537ZM55.8537 143.171V145.122H53.9024V143.171H55.8537ZM55.8537 145.122V147.073H53.9024V145.122H55.8537ZM55.8537 147.073V149.024H53.9024V147.073H55.8537ZM55.8537 149.024V150.976H53.9024V149.024H55.8537ZM55.8537 150.976V152.927H53.9024V150.976H55.8537ZM55.8537 152.927V154.878H53.9024V152.927H55.8537ZM55.8537 154.878V156.829H53.9024V154.878H55.8537ZM55.8537 156.829V158.78H53.9024V156.829H55.8537ZM55.8537 158.78V160.732H53.9024V158.78H55.8537ZM61.7073 141.22V143.171H59.7561V141.22H61.7073ZM61.7073 143.171V145.122H59.7561V143.171H61.7073ZM61.7073 145.122V147.073H59.7561V145.122H61.7073ZM61.7073 147.073V149.024H59.7561V147.073H61.7073ZM61.7073 149.024V150.976H59.7561V149.024H61.7073ZM61.7073 150.976V152.927H59.7561V150.976H61.7073ZM61.7073 154.878V156.829H59.7561V154.878H61.7073ZM61.7073 156.829V158.78H59.7561V156.829H61.7073ZM61.7073 158.78V160.732H59.7561V158.78H61.7073ZM61.7073 160.732V162.683H59.7561V160.732H61.7073ZM61.7073 162.683V164.634H59.7561V162.683H61.7073ZM61.7073 164.634V166.585H59.7561V164.634H61.7073ZM61.7073 166.585V168.537H59.7561V166.585H61.7073ZM63.6585 168.537V170.488H61.7073V168.537H63.6585ZM63.6585 170.488V172.439H61.7073V170.488H63.6585ZM63.6585 172.439V174.39H61.7073V172.439H63.6585ZM63.6585 166.585V168.537H61.7073V166.585H63.6585ZM63.6585 164.634V166.585H61.7073V164.634H63.6585ZM63.6585 162.683V164.634H61.7073V162.683H63.6585ZM63.6585 160.732V162.683H61.7073V160.732H63.6585ZM63.6585 158.78V160.732H61.7073V158.78H63.6585ZM63.6585 156.829V158.78H61.7073V156.829H63.6585ZM63.6585 154.878V156.829H61.7073V154.878H63.6585ZM63.6585 152.927V154.878H61.7073V152.927H63.6585ZM63.6585 150.976V152.927H61.7073V150.976H63.6585ZM63.6585 149.024V150.976H61.7073V149.024H63.6585ZM61.7073 152.927V154.878H59.7561V152.927H61.7073ZM63.6585 147.073V149.024H61.7073V147.073H63.6585ZM63.6585 145.122V147.073H61.7073V145.122H63.6585ZM63.6585 143.171V145.122H61.7073V143.171H63.6585ZM63.6585 141.22V143.171H61.7073V141.22H63.6585ZM59.7561 141.22V143.171H57.8049V141.22H59.7561ZM57.8049 141.22V143.171H55.8537V141.22H57.8049ZM57.8049 143.171V145.122H55.8537V143.171H57.8049ZM59.7561 143.171V145.122H57.8049V143.171H59.7561ZM59.7561 145.122V147.073H57.8049V145.122H59.7561ZM59.7561 147.073V149.024H57.8049V147.073H59.7561ZM59.7561 149.024V150.976H57.8049V149.024H59.7561ZM59.7561 150.976V152.927H57.8049V150.976H59.7561ZM59.7561 152.927V154.878H57.8049V152.927H59.7561ZM59.7561 154.878V156.829H57.8049V154.878H59.7561ZM57.8049 156.829V158.78H55.8537V156.829H57.8049ZM57.8049 158.78V160.732H55.8537V158.78H57.8049ZM57.8049 154.878V156.829H55.8537V154.878H57.8049ZM57.8049 152.927V154.878H55.8537V152.927H57.8049ZM57.8049 150.976V152.927H55.8537V150.976H57.8049ZM57.8049 149.024V150.976H55.8537V149.024H57.8049ZM57.8049 147.073V149.024H55.8537V147.073H57.8049ZM57.8049 145.122V147.073H55.8537V145.122H57.8049ZM59.7561 156.829V158.78H57.8049V156.829H59.7561ZM59.7561 158.78V160.732H57.8049V158.78H59.7561ZM59.7561 160.732V162.683H57.8049V160.732H59.7561ZM59.7561 162.683V164.634H57.8049V162.683H59.7561ZM59.7561 164.634V166.585H57.8049V164.634H59.7561ZM59.7561 166.585V168.537H57.8049V166.585H59.7561ZM59.7561 168.537V170.488H57.8049V168.537H59.7561ZM59.7561 170.488V172.439H57.8049V170.488H59.7561ZM59.7561 172.439V174.39H57.8049V172.439H59.7561ZM61.7073 170.488V172.439H59.7561V170.488H61.7073ZM61.7073 168.537V170.488H59.7561V168.537H61.7073ZM65.6098 168.537V170.488H63.6585V168.537H65.6098ZM67.561 168.537V170.488H65.6098V168.537H67.561ZM67.561 170.488V172.439H65.6098V170.488H67.561ZM65.6098 170.488V172.439H63.6585V170.488H65.6098ZM65.6098 164.634V166.585H63.6585V164.634H65.6098ZM67.561 164.634V166.585H65.6098V164.634H67.561ZM65.6098 172.439V174.39H63.6585V172.439H65.6098ZM67.561 172.439V174.39H65.6098V172.439H67.561ZM67.561 166.585V168.537H65.6098V166.585H67.561ZM65.6098 166.585V168.537H63.6585V166.585H65.6098ZM65.6098 141.22V143.171H63.6585V141.22H65.6098ZM67.561 141.22V143.171H65.6098V141.22H67.561ZM67.561 143.171V145.122H65.6098V143.171H67.561ZM65.6098 143.171V145.122H63.6585V143.171H65.6098ZM65.6098 145.122V147.073H63.6585V145.122H65.6098ZM67.561 145.122V147.073H65.6098V145.122H67.561ZM67.561 147.073V149.024H65.6098V147.073H67.561ZM65.6098 147.073V149.024H63.6585V147.073H65.6098ZM65.6098 149.024V150.976H63.6585V149.024H65.6098ZM67.561 149.024V150.976H65.6098V149.024H67.561ZM69.5122 164.634V166.585H67.561V164.634H69.5122ZM71.4634 164.634V166.585H69.5122V164.634H71.4634ZM73.4146 164.634V166.585H71.4634V164.634H73.4146ZM75.3659 162.683V164.634H73.4146V162.683H75.3659ZM77.3171 160.732V162.683H75.3659V160.732H77.3171ZM77.3171 158.78V160.732H75.3659V158.78H77.3171ZM77.3171 152.927V154.878H75.3659V152.927H77.3171ZM75.3659 150.976V152.927H73.4146V150.976H75.3659ZM73.4146 149.024V150.976H71.4634V149.024H73.4146ZM71.4634 149.024V150.976H69.5122V149.024H71.4634ZM69.5122 149.024V150.976H67.561V149.024H69.5122ZM69.5122 141.22V143.171H67.561V141.22H69.5122ZM71.4634 141.22V143.171H69.5122V141.22H71.4634ZM73.4146 141.22V143.171H71.4634V141.22H73.4146ZM75.3659 141.22V143.171H73.4146V141.22H75.3659ZM75.3659 143.171V145.122H73.4146V143.171H75.3659ZM75.3659 145.122V147.073H73.4146V145.122H75.3659ZM75.3659 147.073V149.024H73.4146V147.073H75.3659ZM73.4146 147.073V149.024H71.4634V147.073H73.4146ZM73.4146 145.122V147.073H71.4634V145.122H73.4146ZM71.4634 145.122V147.073H69.5122V145.122H71.4634ZM69.5122 145.122V147.073H67.561V145.122H69.5122ZM69.5122 143.171V145.122H67.561V143.171H69.5122ZM71.4634 143.171V145.122H69.5122V143.171H71.4634ZM73.4146 143.171V145.122H71.4634V143.171H73.4146ZM69.5122 147.073V149.024H67.561V147.073H69.5122ZM71.4634 147.073V149.024H69.5122V147.073H71.4634ZM75.3659 149.024V150.976H73.4146V149.024H75.3659ZM77.3171 150.976V152.927H75.3659V150.976H77.3171ZM77.3171 149.024V150.976H75.3659V149.024H77.3171ZM77.3171 147.073V149.024H75.3659V147.073H77.3171ZM77.3171 145.122V147.073H75.3659V145.122H77.3171ZM77.3171 143.171V145.122H75.3659V143.171H77.3171ZM77.3171 141.22V143.171H75.3659V141.22H77.3171ZM77.3171 162.683V164.634H75.3659V162.683H77.3171ZM77.3171 164.634V166.585H75.3659V164.634H77.3171ZM77.3171 166.585V168.537H75.3659V166.585H77.3171ZM77.3171 168.537V170.488H75.3659V168.537H77.3171ZM75.3659 168.537V170.488H73.4146V168.537H75.3659ZM73.4146 168.537V170.488H71.4634V168.537H73.4146ZM71.4634 168.537V170.488H69.5122V168.537H71.4634ZM69.5122 168.537V170.488H67.561V168.537H69.5122ZM69.5122 166.585V168.537H67.561V166.585H69.5122ZM71.4634 166.585V168.537H69.5122V166.585H71.4634ZM73.4146 166.585V168.537H71.4634V166.585H73.4146ZM75.3659 166.585V168.537H73.4146V166.585H75.3659ZM75.3659 164.634V166.585H73.4146V164.634H75.3659ZM69.5122 170.488V172.439H67.561V170.488H69.5122ZM71.4634 170.488V172.439H69.5122V170.488H71.4634ZM73.4146 170.488V172.439H71.4634V170.488H73.4146ZM75.3659 170.488V172.439H73.4146V170.488H75.3659ZM77.3171 170.488V172.439H75.3659V170.488H77.3171ZM77.3171 172.439V174.39H75.3659V172.439H77.3171ZM75.3659 172.439V174.39H73.4146V172.439H75.3659ZM73.4146 172.439V174.39H71.4634V172.439H73.4146ZM71.4634 172.439V174.39H69.5122V172.439H71.4634ZM69.5122 172.439V174.39H67.561V172.439H69.5122ZM79.2683 143.171V145.122H77.3171V143.171H79.2683ZM81.2195 143.171V145.122H79.2683V143.171H81.2195ZM81.2195 145.122V147.073H79.2683V145.122H81.2195ZM83.1707 145.122V147.073H81.2195V145.122H83.1707ZM83.1707 147.073V149.024H81.2195V147.073H83.1707ZM83.1707 149.024V150.976H81.2195V149.024H83.1707ZM85.122 149.024V150.976H83.1707V149.024H85.122ZM85.122 150.976V152.927H83.1707V150.976H85.122ZM85.122 152.927V154.878H83.1707V152.927H85.122ZM85.122 158.78V160.732H83.1707V158.78H85.122ZM85.122 160.732V162.683H83.1707V160.732H85.122ZM85.122 162.683V164.634H83.1707V162.683H85.122ZM85.122 164.634V166.585H83.1707V164.634H85.122ZM83.1707 166.585V168.537H81.2195V166.585H83.1707ZM81.2195 168.537V170.488H79.2683V168.537H81.2195ZM79.2683 170.488V172.439H77.3171V170.488H79.2683ZM81.2195 170.488V172.439H79.2683V170.488H81.2195ZM79.2683 172.439V174.39H77.3171V172.439H79.2683ZM79.2683 145.122V147.073H77.3171V145.122H79.2683ZM79.2683 147.073V149.024H77.3171V147.073H79.2683ZM79.2683 149.024V150.976H77.3171V149.024H79.2683ZM79.2683 150.976V152.927H77.3171V150.976H79.2683ZM79.2683 152.927V154.878H77.3171V152.927H79.2683ZM79.2683 158.78V160.732H77.3171V158.78H79.2683ZM79.2683 160.732V162.683H77.3171V160.732H79.2683ZM79.2683 162.683V164.634H77.3171V162.683H79.2683ZM79.2683 164.634V166.585H77.3171V164.634H79.2683ZM79.2683 166.585V168.537H77.3171V166.585H79.2683ZM79.2683 168.537V170.488H77.3171V168.537H79.2683ZM81.2195 166.585V168.537H79.2683V166.585H81.2195ZM81.2195 164.634V166.585H79.2683V164.634H81.2195ZM81.2195 162.683V164.634H79.2683V162.683H81.2195ZM81.2195 160.732V162.683H79.2683V160.732H81.2195ZM81.2195 158.78V160.732H79.2683V158.78H81.2195ZM81.2195 152.927V154.878H79.2683V152.927H81.2195ZM81.2195 150.976V152.927H79.2683V150.976H81.2195ZM81.2195 149.024V150.976H79.2683V149.024H81.2195ZM81.2195 147.073V149.024H79.2683V147.073H81.2195ZM83.1707 150.976V152.927H81.2195V150.976H83.1707ZM83.1707 152.927V154.878H81.2195V152.927H83.1707ZM83.1707 158.78V160.732H81.2195V158.78H83.1707ZM83.1707 160.732V162.683H81.2195V160.732H83.1707ZM83.1707 162.683V164.634H81.2195V162.683H83.1707ZM83.1707 164.634V166.585H81.2195V164.634H83.1707ZM63.6585 184.146V186.098H61.7073V184.146H63.6585ZM63.6585 186.098V188.049H61.7073V186.098H63.6585ZM63.6585 182.195V184.146H61.7073V182.195H63.6585ZM77.3171 154.878V156.829H75.3659V154.878H77.3171ZM79.2683 154.878V156.829H77.3171V154.878H79.2683ZM81.2195 154.878V156.829H79.2683V154.878H81.2195ZM83.1707 154.878V156.829H81.2195V154.878H83.1707ZM85.122 154.878V156.829H83.1707V154.878H85.122ZM85.122 156.829V158.78H83.1707V156.829H85.122ZM83.1707 156.829V158.78H81.2195V156.829H83.1707ZM81.2195 156.829V158.78H79.2683V156.829H81.2195ZM79.2683 156.829V158.78H77.3171V156.829H79.2683ZM77.3171 156.829V158.78H75.3659V156.829H77.3171ZM94.9162 141.22V143.171H92.9649V141.22H94.9162ZM94.9162 143.171V145.122H92.9649V143.171H94.9162ZM94.9162 145.122V147.073H92.9649V145.122H94.9162ZM100.77 141.22V143.171H98.8186V141.22H100.77ZM100.77 143.171V145.122H98.8186V143.171H100.77ZM100.77 145.122V147.073H98.8186V145.122H100.77ZM102.721 145.122V147.073H100.77V145.122H102.721ZM102.721 143.171V145.122H100.77V143.171H102.721ZM102.721 141.22V143.171H100.77V141.22H102.721ZM98.8186 141.22V143.171H96.8674V141.22H98.8186ZM96.8674 141.22V143.171H94.9162V141.22H96.8674ZM96.8674 143.171V145.122H94.9162V143.171H96.8674ZM98.8186 143.171V145.122H96.8674V143.171H98.8186ZM98.8186 145.122V147.073H96.8674V145.122H98.8186ZM96.8674 145.122V147.073H94.9162V145.122H96.8674ZM94.9162 147.073V149.024H92.9649V147.073H94.9162ZM96.8674 147.073V149.024H94.9162V147.073H96.8674ZM98.8186 147.073V149.024H96.8674V147.073H98.8186ZM100.77 147.073V149.024H98.8186V147.073H100.77ZM102.721 147.073V149.024H100.77V147.073H102.721ZM94.9162 188.049V190H92.9649V188.049H94.9162ZM94.9162 186.098V188.049H92.9649V186.098H94.9162ZM94.9162 184.146V186.098H92.9649V184.146H94.9162ZM94.9162 182.195V184.146H92.9649V182.195H94.9162ZM94.9162 180.244V182.195H92.9649V180.244H94.9162ZM94.9162 178.293V180.244H92.9649V178.293H94.9162ZM94.9162 176.341V178.293H92.9649V176.341H94.9162ZM94.9162 174.39V176.341H92.9649V174.39H94.9162ZM94.9162 172.439V174.39H92.9649V172.439H94.9162ZM94.9162 170.488V172.439H92.9649V170.488H94.9162ZM94.9162 168.537V170.488H92.9649V168.537H94.9162ZM94.9162 166.585V168.537H92.9649V166.585H94.9162ZM94.9162 164.634V166.585H92.9649V164.634H94.9162ZM94.9162 162.683V164.634H92.9649V162.683H94.9162ZM94.9162 160.732V162.683H92.9649V160.732H94.9162ZM96.8674 160.732V162.683H94.9162V160.732H96.8674ZM96.8674 162.683V164.634H94.9162V162.683H96.8674ZM96.8674 164.634V166.585H94.9162V164.634H96.8674ZM96.8674 166.585V168.537H94.9162V166.585H96.8674ZM96.8674 168.537V170.488H94.9162V168.537H96.8674ZM96.8674 170.488V172.439H94.9162V170.488H96.8674ZM96.8674 172.439V174.39H94.9162V172.439H96.8674ZM98.8186 174.39V176.341H96.8674V174.39H98.8186ZM98.8186 176.341V178.293H96.8674V176.341H98.8186ZM98.8186 178.293V180.244H96.8674V178.293H98.8186ZM98.8186 180.244V182.195H96.8674V180.244H98.8186ZM98.8186 182.195V184.146H96.8674V182.195H98.8186ZM98.8186 184.146V186.098H96.8674V184.146H98.8186ZM98.8186 186.098V188.049H96.8674V186.098H98.8186ZM98.8186 188.049V190H96.8674V188.049H98.8186ZM100.77 188.049V190H98.8186V188.049H100.77ZM102.721 188.049V190H100.77V188.049H102.721ZM102.721 186.098V188.049H100.77V186.098H102.721ZM102.721 184.146V186.098H100.77V184.146H102.721ZM102.721 182.195V184.146H100.77V182.195H102.721ZM102.721 180.244V182.195H100.77V180.244H102.721ZM102.721 178.293V180.244H100.77V178.293H102.721ZM102.721 176.341V178.293H100.77V176.341H102.721ZM102.721 174.39V176.341H100.77V174.39H102.721ZM100.77 174.39V176.341H98.8186V174.39H100.77ZM100.77 172.439V174.39H98.8186V172.439H100.77ZM100.77 176.341V178.293H98.8186V176.341H100.77ZM100.77 178.293V180.244H98.8186V178.293H100.77ZM100.77 180.244V182.195H98.8186V180.244H100.77ZM100.77 182.195V184.146H98.8186V182.195H100.77ZM100.77 184.146V186.098H98.8186V184.146H100.77ZM100.77 186.098V188.049H98.8186V186.098H100.77ZM96.8674 188.049V190H94.9162V188.049H96.8674ZM96.8674 186.098V188.049H94.9162V186.098H96.8674ZM96.8674 184.146V186.098H94.9162V184.146H96.8674ZM96.8674 182.195V184.146H94.9162V182.195H96.8674ZM96.8674 180.244V182.195H94.9162V180.244H96.8674ZM96.8674 178.293V180.244H94.9162V178.293H96.8674ZM96.8674 176.341V178.293H94.9162V176.341H96.8674ZM96.8674 174.39V176.341H94.9162V174.39H96.8674ZM94.9162 156.829V158.78H92.9649V156.829H94.9162ZM94.9162 158.78V160.732H92.9649V158.78H94.9162ZM100.77 156.829V158.78H98.8186V156.829H100.77ZM100.77 158.78V160.732H98.8186V158.78H100.77ZM100.77 160.732V162.683H98.8186V160.732H100.77ZM100.77 162.683V164.634H98.8186V162.683H100.77ZM100.77 164.634V166.585H98.8186V164.634H100.77ZM100.77 166.585V168.537H98.8186V166.585H100.77ZM102.721 168.537V170.488H100.77V168.537H102.721ZM102.721 170.488V172.439H100.77V170.488H102.721ZM102.721 172.439V174.39H100.77V172.439H102.721ZM102.721 166.585V168.537H100.77V166.585H102.721ZM102.721 164.634V166.585H100.77V164.634H102.721ZM102.721 162.683V164.634H100.77V162.683H102.721ZM102.721 160.732V162.683H100.77V160.732H102.721ZM102.721 158.78V160.732H100.77V158.78H102.721ZM102.721 156.829V158.78H100.77V156.829H102.721ZM96.8674 156.829V158.78H94.9162V156.829H96.8674ZM96.8674 158.78V160.732H94.9162V158.78H96.8674ZM98.8186 156.829V158.78H96.8674V156.829H98.8186ZM98.8186 158.78V160.732H96.8674V158.78H98.8186ZM98.8186 160.732V162.683H96.8674V160.732H98.8186ZM98.8186 162.683V164.634H96.8674V162.683H98.8186ZM98.8186 164.634V166.585H96.8674V164.634H98.8186ZM98.8186 166.585V168.537H96.8674V166.585H98.8186ZM98.8186 168.537V170.488H96.8674V168.537H98.8186ZM98.8186 170.488V172.439H96.8674V170.488H98.8186ZM98.8186 172.439V174.39H96.8674V172.439H98.8186ZM100.77 170.488V172.439H98.8186V170.488H100.77ZM100.77 168.537V170.488H98.8186V168.537H100.77ZM100.77 154.878V156.829H98.8186V154.878H100.77ZM102.721 154.878V156.829H100.77V154.878H102.721ZM98.8186 154.878V156.829H96.8674V154.878H98.8186ZM96.8674 154.878V156.829H94.9162V154.878H96.8674ZM94.9162 154.878V156.829H92.9649V154.878H94.9162ZM132.006 164.634V166.585H130.055V164.634H132.006ZM133.958 164.634V166.585H132.006V164.634H133.958ZM135.909 164.634V166.585H133.958V164.634H135.909ZM137.86 164.634V166.585H135.909V164.634H137.86ZM139.811 164.634V166.585H137.86V164.634H139.811ZM139.811 162.683V164.634H137.86V162.683H139.811ZM139.811 160.732V162.683H137.86V160.732H139.811ZM137.86 160.732V162.683H135.909V160.732H137.86ZM135.909 160.732V162.683H133.958V160.732H135.909ZM133.958 160.732V162.683H132.006V160.732H133.958ZM133.958 162.683V164.634H132.006V162.683H133.958ZM132.006 162.683V164.634H130.055V162.683H132.006ZM135.909 162.683V164.634H133.958V162.683H135.909ZM137.86 162.683V164.634H135.909V162.683H137.86ZM132.006 160.732V162.683H130.055V160.732H132.006ZM130.055 160.732V162.683H128.104V160.732H130.055ZM130.055 158.78V160.732H128.104V158.78H130.055ZM132.006 158.78V160.732H130.055V158.78H132.006ZM133.958 158.78V160.732H132.006V158.78H133.958ZM135.909 158.78V160.732H133.958V158.78H135.909ZM137.86 158.78V160.732H135.909V158.78H137.86ZM137.86 156.829V158.78H135.909V156.829H137.86ZM135.909 156.829V158.78H133.958V156.829H135.909ZM133.958 156.829V158.78H132.006V156.829H133.958ZM132.006 156.829V158.78H130.055V156.829H132.006ZM130.055 156.829V158.78H128.104V156.829H130.055ZM133.958 154.878V156.829H132.006V154.878H133.958ZM135.909 154.878V156.829H133.958V154.878H135.909ZM132.006 154.878V156.829H130.055V154.878H132.006ZM132.006 152.927V154.878H130.055V152.927H132.006ZM130.055 152.927V154.878H128.104V152.927H130.055ZM130.055 154.878V156.829H128.104V154.878H130.055ZM128.104 154.878V156.829H126.153V154.878H128.104ZM128.104 152.927V154.878H126.153V152.927H128.104ZM128.104 156.829V158.78H126.153V156.829H128.104ZM126.153 156.829V158.78H124.202V156.829H126.153ZM126.153 158.78V160.732H124.202V158.78H126.153ZM128.104 158.78V160.732H126.153V158.78H128.104ZM124.202 158.78V160.732H122.25V158.78H124.202ZM124.202 156.829V158.78H122.25V156.829H124.202ZM124.202 154.878V156.829H122.25V154.878H124.202ZM124.202 152.927V154.878H122.25V152.927H124.202ZM126.153 152.927V154.878H124.202V152.927H126.153ZM126.153 154.878V156.829H124.202V154.878H126.153ZM122.25 152.927V154.878H120.299V152.927H122.25ZM120.299 152.927V154.878H118.348V152.927H120.299ZM118.348 152.927V154.878H116.397V152.927H118.348ZM118.348 154.878V156.829H116.397V154.878H118.348ZM118.348 156.829V158.78H116.397V156.829H118.348ZM118.348 158.78V160.732H116.397V158.78H118.348ZM120.299 158.78V160.732H118.348V158.78H120.299ZM122.25 158.78V160.732H120.299V158.78H122.25ZM122.25 156.829V158.78H120.299V156.829H122.25ZM122.25 154.878V156.829H120.299V154.878H122.25ZM120.299 154.878V156.829H118.348V154.878H120.299ZM120.299 156.829V158.78H118.348V156.829H120.299ZM116.397 156.829V158.78H114.446V156.829H116.397ZM116.397 154.878V156.829H114.446V154.878H116.397ZM114.446 154.878V156.829H112.494V154.878H114.446ZM114.446 156.829V158.78H112.494V156.829H114.446ZM112.494 156.829V158.78H110.543V156.829H112.494ZM112.494 158.78V160.732H110.543V158.78H112.494ZM112.494 160.732V162.683H110.543V160.732H112.494ZM114.446 160.732V162.683H112.494V160.732H114.446ZM114.446 158.78V160.732H112.494V158.78H114.446ZM116.397 158.78V160.732H114.446V158.78H116.397ZM116.397 160.732V162.683H114.446V160.732H116.397ZM118.348 160.732V162.683H116.397V160.732H118.348ZM120.299 160.732V162.683H118.348V160.732H120.299ZM110.543 160.732V162.683H108.592V160.732H110.543ZM110.543 162.683V164.634H108.592V162.683H110.543ZM110.543 164.634V166.585H108.592V164.634H110.543ZM110.543 166.585V168.537H108.592V166.585H110.543ZM110.543 168.537V170.488H108.592V168.537H110.543ZM110.543 170.488V172.439H108.592V170.488H110.543ZM110.543 172.439V174.39H108.592V172.439H110.543ZM110.543 174.39V176.341H108.592V174.39H110.543ZM110.543 176.341V178.293H108.592V176.341H110.543ZM110.543 178.293V180.244H108.592V178.293H110.543ZM112.494 178.293V180.244H110.543V178.293H112.494ZM112.494 180.244V182.195H110.543V180.244H112.494ZM110.543 180.244V182.195H108.592V180.244H110.543ZM114.446 180.244V182.195H112.494V180.244H114.446ZM116.397 180.244V182.195H114.446V180.244H116.397ZM118.348 180.244V182.195H116.397V180.244H118.348ZM120.299 180.244V182.195H118.348V180.244H120.299ZM118.348 178.293V180.244H116.397V178.293H118.348ZM118.348 176.341V178.293H116.397V176.341H118.348ZM118.348 174.39V176.341H116.397V174.39H118.348ZM118.348 172.439V174.39H116.397V172.439H118.348ZM118.348 170.488V172.439H116.397V170.488H118.348ZM118.348 168.537V170.488H116.397V168.537H118.348ZM118.348 166.585V168.537H116.397V166.585H118.348ZM118.348 164.634V166.585H116.397V164.634H118.348ZM118.348 162.683V164.634H116.397V162.683H118.348ZM116.397 162.683V164.634H114.446V162.683H116.397ZM114.446 162.683V164.634H112.494V162.683H114.446ZM112.494 162.683V164.634H110.543V162.683H112.494ZM112.494 164.634V166.585H110.543V164.634H112.494ZM112.494 166.585V168.537H110.543V166.585H112.494ZM112.494 168.537V170.488H110.543V168.537H112.494ZM112.494 170.488V172.439H110.543V170.488H112.494ZM112.494 172.439V174.39H110.543V172.439H112.494ZM112.494 174.39V176.341H110.543V174.39H112.494ZM112.494 176.341V178.293H110.543V176.341H112.494ZM114.446 178.293V180.244H112.494V178.293H114.446ZM116.397 178.293V180.244H114.446V178.293H116.397ZM116.397 176.341V178.293H114.446V176.341H116.397ZM116.397 174.39V176.341H114.446V174.39H116.397ZM116.397 172.439V174.39H114.446V172.439H116.397ZM116.397 170.488V172.439H114.446V170.488H116.397ZM114.446 170.488V172.439H112.494V170.488H114.446ZM114.446 168.537V170.488H112.494V168.537H114.446ZM114.446 166.585V168.537H112.494V166.585H114.446ZM114.446 164.634V166.585H112.494V164.634H114.446ZM116.397 164.634V166.585H114.446V164.634H116.397ZM116.397 166.585V168.537H114.446V166.585H116.397ZM116.397 168.537V170.488H114.446V168.537H116.397ZM114.446 174.39V176.341H112.494V174.39H114.446ZM114.446 176.341V178.293H112.494V176.341H114.446ZM114.446 172.439V174.39H112.494V172.439H114.446ZM132.006 176.341V178.293H130.055V176.341H132.006ZM132.006 178.293V180.244H130.055V178.293H132.006ZM133.958 178.293V180.244H132.006V178.293H133.958ZM135.909 178.293V180.244H133.958V178.293H135.909ZM137.86 178.293V180.244H135.909V178.293H137.86ZM139.811 178.293V180.244H137.86V178.293H139.811ZM139.811 176.341V178.293H137.86V176.341H139.811ZM137.86 176.341V178.293H135.909V176.341H137.86ZM135.909 176.341V178.293H133.958V176.341H135.909ZM133.958 176.341V178.293H132.006V176.341H133.958ZM139.811 180.244V182.195H137.86V180.244H139.811ZM137.86 180.244V182.195H135.909V180.244H137.86ZM135.909 180.244V182.195H133.958V180.244H135.909ZM133.958 180.244V182.195H132.006V180.244H133.958ZM132.006 180.244V182.195H130.055V180.244H132.006ZM130.055 180.244V182.195H128.104V180.244H130.055ZM130.055 182.195V184.146H128.104V182.195H130.055ZM132.006 182.195V184.146H130.055V182.195H132.006ZM133.958 182.195V184.146H132.006V182.195H133.958ZM135.909 182.195V184.146H133.958V182.195H135.909ZM135.909 184.146V186.098H133.958V184.146H135.909ZM137.86 184.146V186.098H135.909V184.146H137.86ZM137.86 182.195V184.146H135.909V182.195H137.86ZM135.909 186.098V188.049H133.958V186.098H135.909ZM133.958 186.098V188.049H132.006V186.098H133.958ZM133.958 184.146V186.098H132.006V184.146H133.958ZM132.006 184.146V186.098H130.055V184.146H132.006ZM132.006 186.098V188.049H130.055V186.098H132.006ZM132.006 188.049V190H130.055V188.049H132.006ZM130.055 188.049V190H128.104V188.049H130.055ZM128.104 188.049V190H126.153V188.049H128.104ZM126.153 188.049V190H124.202V188.049H126.153ZM124.202 188.049V190H122.25V188.049H124.202ZM122.25 188.049V190H120.299V188.049H122.25ZM120.299 188.049V190H118.348V188.049H120.299ZM118.348 188.049V190H116.397V188.049H118.348ZM120.299 186.098V188.049H118.348V186.098H120.299ZM122.25 186.098V188.049H120.299V186.098H122.25ZM124.202 186.098V188.049H122.25V186.098H124.202ZM126.153 186.098V188.049H124.202V186.098H126.153ZM128.104 186.098V188.049H126.153V186.098H128.104ZM130.055 186.098V188.049H128.104V186.098H130.055ZM130.055 184.146V186.098H128.104V184.146H130.055ZM128.104 184.146V186.098H126.153V184.146H128.104ZM126.153 184.146V186.098H124.202V184.146H126.153ZM124.202 184.146V186.098H122.25V184.146H124.202ZM122.25 184.146V186.098H120.299V184.146H122.25ZM120.299 184.146V186.098H118.348V184.146H120.299ZM118.348 186.098V188.049H116.397V186.098H118.348ZM116.397 186.098V188.049H114.446V186.098H116.397ZM114.446 186.098V188.049H112.494V186.098H114.446ZM114.446 184.146V186.098H112.494V184.146H114.446ZM112.494 184.146V186.098H110.543V184.146H112.494ZM112.494 182.195V184.146H110.543V182.195H112.494ZM114.446 182.195V184.146H112.494V182.195H114.446ZM116.397 182.195V184.146H114.446V182.195H116.397ZM118.348 182.195V184.146H116.397V182.195H118.348ZM120.299 182.195V184.146H118.348V182.195H120.299ZM122.25 182.195V184.146H120.299V182.195H122.25ZM124.202 182.195V184.146H122.25V182.195H124.202ZM126.153 182.195V184.146H124.202V182.195H126.153ZM128.104 182.195V184.146H126.153V182.195H128.104ZM118.348 184.146V186.098H116.397V184.146H118.348ZM116.397 184.146V186.098H114.446V184.146H116.397ZM147.651 188.049V190H145.699V188.049H147.651ZM147.651 186.098V188.049H145.699V186.098H147.651ZM147.651 184.146V186.098H145.699V184.146H147.651ZM147.651 182.195V184.146H145.699V182.195H147.651ZM147.651 180.244V182.195H145.699V180.244H147.651ZM147.651 178.293V180.244H145.699V178.293H147.651ZM147.651 176.341V178.293H145.699V176.341H147.651ZM147.651 174.39V176.341H145.699V174.39H147.651ZM147.651 172.439V174.39H145.699V172.439H147.651ZM147.651 170.488V172.439H145.699V170.488H147.651ZM147.651 168.537V170.488H145.699V168.537H147.651ZM147.651 166.585V168.537H145.699V166.585H147.651ZM147.651 164.634V166.585H145.699V164.634H147.651ZM147.651 162.683V164.634H145.699V162.683H147.651ZM147.651 160.732V162.683H145.699V160.732H147.651ZM149.602 160.732V162.683H147.651V160.732H149.602ZM149.602 162.683V164.634H147.651V162.683H149.602ZM149.602 164.634V166.585H147.651V164.634H149.602ZM149.602 166.585V168.537H147.651V166.585H149.602ZM149.602 168.537V170.488H147.651V168.537H149.602ZM149.602 170.488V172.439H147.651V170.488H149.602ZM149.602 172.439V174.39H147.651V172.439H149.602ZM151.553 174.39V176.341H149.602V174.39H151.553ZM151.553 176.341V178.293H149.602V176.341H151.553ZM151.553 178.293V180.244H149.602V178.293H151.553ZM151.553 180.244V182.195H149.602V180.244H151.553ZM151.553 182.195V184.146H149.602V182.195H151.553ZM151.553 184.146V186.098H149.602V184.146H151.553ZM151.553 186.098V188.049H149.602V186.098H151.553ZM151.553 188.049V190H149.602V188.049H151.553ZM153.504 188.049V190H151.553V188.049H153.504ZM155.455 188.049V190H153.504V188.049H155.455ZM155.455 186.098V188.049H153.504V186.098H155.455ZM155.455 184.146V186.098H153.504V184.146H155.455ZM155.455 182.195V184.146H153.504V182.195H155.455ZM155.455 180.244V182.195H153.504V180.244H155.455ZM155.455 178.293V180.244H153.504V178.293H155.455ZM155.455 176.341V178.293H153.504V176.341H155.455ZM155.455 174.39V176.341H153.504V174.39H155.455ZM153.504 174.39V176.341H151.553V174.39H153.504ZM153.504 172.439V174.39H151.553V172.439H153.504ZM153.504 176.341V178.293H151.553V176.341H153.504ZM153.504 178.293V180.244H151.553V178.293H153.504ZM153.504 180.244V182.195H151.553V180.244H153.504ZM153.504 182.195V184.146H151.553V182.195H153.504ZM153.504 184.146V186.098H151.553V184.146H153.504ZM153.504 186.098V188.049H151.553V186.098H153.504ZM149.602 188.049V190H147.651V188.049H149.602ZM149.602 186.098V188.049H147.651V186.098H149.602ZM149.602 184.146V186.098H147.651V184.146H149.602ZM149.602 182.195V184.146H147.651V182.195H149.602ZM149.602 180.244V182.195H147.651V180.244H149.602ZM149.602 178.293V180.244H147.651V178.293H149.602ZM149.602 176.341V178.293H147.651V176.341H149.602ZM149.602 174.39V176.341H147.651V174.39H149.602ZM147.651 141.22V143.171H145.699V141.22H147.651ZM147.651 143.171V145.122H145.699V143.171H147.651ZM147.651 145.122V147.073H145.699V145.122H147.651ZM147.651 147.073V149.024H145.699V147.073H147.651ZM147.651 149.024V150.976H145.699V149.024H147.651ZM147.651 150.976V152.927H145.699V150.976H147.651ZM147.651 152.927V154.878H145.699V152.927H147.651ZM147.651 154.878V156.829H145.699V154.878H147.651ZM147.651 156.829V158.78H145.699V156.829H147.651ZM147.651 158.78V160.732H145.699V158.78H147.651ZM153.504 141.22V143.171H151.553V141.22H153.504ZM153.504 143.171V145.122H151.553V143.171H153.504ZM153.504 145.122V147.073H151.553V145.122H153.504ZM153.504 147.073V149.024H151.553V147.073H153.504ZM153.504 149.024V150.976H151.553V149.024H153.504ZM153.504 150.976V152.927H151.553V150.976H153.504ZM153.504 154.878V156.829H151.553V154.878H153.504ZM153.504 156.829V158.78H151.553V156.829H153.504ZM153.504 158.78V160.732H151.553V158.78H153.504ZM153.504 160.732V162.683H151.553V160.732H153.504ZM153.504 162.683V164.634H151.553V162.683H153.504ZM153.504 164.634V166.585H151.553V164.634H153.504ZM153.504 166.585V168.537H151.553V166.585H153.504ZM155.455 168.537V170.488H153.504V168.537H155.455ZM155.455 170.488V172.439H153.504V170.488H155.455ZM155.455 172.439V174.39H153.504V172.439H155.455ZM155.455 166.585V168.537H153.504V166.585H155.455ZM155.455 164.634V166.585H153.504V164.634H155.455ZM155.455 162.683V164.634H153.504V162.683H155.455ZM155.455 160.732V162.683H153.504V160.732H155.455ZM155.455 158.78V160.732H153.504V158.78H155.455ZM155.455 156.829V158.78H153.504V156.829H155.455ZM155.455 154.878V156.829H153.504V154.878H155.455ZM155.455 152.927V154.878H153.504V152.927H155.455ZM155.455 150.976V152.927H153.504V150.976H155.455ZM155.455 149.024V150.976H153.504V149.024H155.455ZM153.504 152.927V154.878H151.553V152.927H153.504ZM155.455 147.073V149.024H153.504V147.073H155.455ZM155.455 145.122V147.073H153.504V145.122H155.455ZM155.455 143.171V145.122H153.504V143.171H155.455ZM155.455 141.22V143.171H153.504V141.22H155.455ZM151.553 141.22V143.171H149.602V141.22H151.553ZM149.602 141.22V143.171H147.651V141.22H149.602ZM149.602 143.171V145.122H147.651V143.171H149.602ZM151.553 143.171V145.122H149.602V143.171H151.553ZM151.553 145.122V147.073H149.602V145.122H151.553ZM151.553 147.073V149.024H149.602V147.073H151.553ZM151.553 149.024V150.976H149.602V149.024H151.553ZM151.553 150.976V152.927H149.602V150.976H151.553ZM151.553 152.927V154.878H149.602V152.927H151.553ZM151.553 154.878V156.829H149.602V154.878H151.553ZM149.602 156.829V158.78H147.651V156.829H149.602ZM149.602 158.78V160.732H147.651V158.78H149.602ZM149.602 154.878V156.829H147.651V154.878H149.602ZM149.602 152.927V154.878H147.651V152.927H149.602ZM149.602 150.976V152.927H147.651V150.976H149.602ZM149.602 149.024V150.976H147.651V149.024H149.602ZM149.602 147.073V149.024H147.651V147.073H149.602ZM149.602 145.122V147.073H147.651V145.122H149.602ZM151.553 156.829V158.78H149.602V156.829H151.553ZM151.553 158.78V160.732H149.602V158.78H151.553ZM151.553 160.732V162.683H149.602V160.732H151.553ZM151.553 162.683V164.634H149.602V162.683H151.553ZM151.553 164.634V166.585H149.602V164.634H151.553ZM151.553 166.585V168.537H149.602V166.585H151.553ZM151.553 168.537V170.488H149.602V168.537H151.553ZM151.553 170.488V172.439H149.602V170.488H151.553ZM151.553 172.439V174.39H149.602V172.439H151.553ZM153.504 170.488V172.439H151.553V170.488H153.504ZM153.504 168.537V170.488H151.553V168.537H153.504ZM165.212 154.878V156.829H163.26V154.878H165.212ZM165.212 152.927V154.878H163.26V152.927H165.212ZM167.163 152.927V154.878H165.212V152.927H167.163ZM169.114 152.927V154.878H167.163V152.927H169.114ZM171.065 152.927V154.878H169.114V152.927H171.065ZM173.016 152.927V154.878H171.065V152.927H173.016ZM173.016 154.878V156.829H171.065V154.878H173.016ZM173.016 156.829V158.78H171.065V156.829H173.016ZM173.016 158.78V160.732H171.065V158.78H173.016ZM173.016 160.732V162.683H171.065V160.732H173.016ZM171.065 160.732V162.683H169.114V160.732H171.065ZM171.065 162.683V164.634H169.114V162.683H171.065ZM169.114 162.683V164.634H167.163V162.683H169.114ZM169.114 164.634V166.585H167.163V164.634H169.114ZM167.163 164.634V166.585H165.212V164.634H167.163ZM167.163 166.585V168.537H165.212V166.585H167.163ZM165.212 166.585V168.537H163.26V166.585H165.212ZM165.212 168.537V170.488H163.26V168.537H165.212ZM165.212 170.488V172.439H163.26V170.488H165.212ZM167.163 170.488V172.439H165.212V170.488H167.163ZM167.163 172.439V174.39H165.212V172.439H167.163ZM169.114 172.439V174.39H167.163V172.439H169.114ZM169.114 174.39V176.341H167.163V174.39H169.114ZM171.065 174.39V176.341H169.114V174.39H171.065ZM171.065 176.341V178.293H169.114V176.341H171.065ZM173.016 176.341V178.293H171.065V176.341H173.016ZM173.016 178.293V180.244H171.065V178.293H173.016ZM173.016 180.244V182.195H171.065V180.244H173.016ZM173.016 182.195V184.146H171.065V182.195H173.016ZM173.016 184.146V186.098H171.065V184.146H173.016ZM173.016 186.098V188.049H171.065V186.098H173.016ZM173.016 188.049V190H171.065V188.049H173.016ZM165.212 156.829V158.78H163.26V156.829H165.212ZM165.212 158.78V160.732H163.26V158.78H165.212ZM165.212 160.732V162.683H163.26V160.732H165.212ZM163.26 160.732V162.683H161.309V160.732H163.26ZM165.212 162.683V164.634H163.26V162.683H165.212ZM163.26 162.683V164.634H161.309V162.683H163.26ZM163.26 164.634V166.585H161.309V164.634H163.26ZM161.309 162.683V164.634H159.358V162.683H161.309ZM161.309 164.634V166.585H159.358V164.634H161.309ZM163.26 166.585V168.537H161.309V166.585H163.26ZM165.212 164.634V166.585H163.26V164.634H165.212ZM167.163 162.683V164.634H165.212V162.683H167.163ZM169.114 160.732V162.683H167.163V160.732H169.114ZM171.065 158.78V160.732H169.114V158.78H171.065ZM171.065 156.829V158.78H169.114V156.829H171.065ZM171.065 154.878V156.829H169.114V154.878H171.065ZM169.114 154.878V156.829H167.163V154.878H169.114ZM167.163 156.829V158.78H165.212V156.829H167.163ZM167.163 158.78V160.732H165.212V158.78H167.163ZM167.163 160.732V162.683H165.212V160.732H167.163ZM169.114 158.78V160.732H167.163V158.78H169.114ZM169.114 156.829V158.78H167.163V156.829H169.114ZM167.163 154.878V156.829H165.212V154.878H167.163ZM159.358 164.634V166.585H157.407V164.634H159.358ZM157.407 164.634V166.585H155.455V164.634H157.407ZM157.407 166.585V168.537H155.455V166.585H157.407ZM157.407 168.537V170.488H155.455V168.537H157.407ZM157.407 170.488V172.439H155.455V170.488H157.407ZM159.358 170.488V172.439H157.407V170.488H159.358ZM159.358 172.439V174.39H157.407V172.439H159.358ZM157.407 172.439V174.39H155.455V172.439H157.407ZM161.309 172.439V174.39H159.358V172.439H161.309ZM161.309 174.39V176.341H159.358V174.39H161.309ZM163.26 174.39V176.341H161.309V174.39H163.26ZM163.26 176.341V178.293H161.309V176.341H163.26ZM165.212 176.341V178.293H163.26V176.341H165.212ZM165.212 178.293V180.244H163.26V178.293H165.212ZM167.163 180.244V182.195H165.212V180.244H167.163ZM167.163 182.195V184.146H165.212V182.195H167.163ZM167.163 184.146V186.098H165.212V184.146H167.163ZM165.212 184.146V186.098H163.26V184.146H165.212ZM165.212 182.195V184.146H163.26V182.195H165.212ZM165.212 180.244V182.195H163.26V180.244H165.212ZM165.212 186.098V188.049H163.26V186.098H165.212ZM165.212 188.049V190H163.26V188.049H165.212ZM167.163 188.049V190H165.212V188.049H167.163ZM169.114 188.049V190H167.163V188.049H169.114ZM171.065 188.049V190H169.114V188.049H171.065ZM171.065 186.098V188.049H169.114V186.098H171.065ZM169.114 186.098V188.049H167.163V186.098H169.114ZM167.163 186.098V188.049H165.212V186.098H167.163ZM169.114 184.146V186.098H167.163V184.146H169.114ZM171.065 184.146V186.098H169.114V184.146H171.065ZM171.065 182.195V184.146H169.114V182.195H171.065ZM171.065 180.244V182.195H169.114V180.244H171.065ZM171.065 178.293V180.244H169.114V178.293H171.065ZM169.114 178.293V180.244H167.163V178.293H169.114ZM169.114 180.244V182.195H167.163V180.244H169.114ZM169.114 182.195V184.146H167.163V182.195H169.114ZM169.114 176.341V178.293H167.163V176.341H169.114ZM167.163 176.341V178.293H165.212V176.341H167.163ZM167.163 174.39V176.341H165.212V174.39H167.163ZM165.212 174.39V176.341H163.26V174.39H165.212ZM165.212 172.439V174.39H163.26V172.439H165.212ZM163.26 172.439V174.39H161.309V172.439H163.26ZM163.26 170.488V172.439H161.309V170.488H163.26ZM163.26 168.537V170.488H161.309V168.537H163.26ZM161.309 168.537V170.488H159.358V168.537H161.309ZM161.309 166.585V168.537H159.358V166.585H161.309ZM159.358 166.585V168.537H157.407V166.585H159.358ZM159.358 168.537V170.488H157.407V168.537H159.358ZM161.309 170.488V172.439H159.358V170.488H161.309ZM167.163 178.293V180.244H165.212V178.293H167.163ZM208.173 154.878V152.927H210.124V154.878H208.173ZM208.173 156.829V154.878H210.124V156.829H208.173ZM208.173 158.78V156.829H210.124V158.78H208.173ZM208.173 160.732V158.78H210.124V160.732H208.173ZM208.173 162.683V160.732H210.124V162.683H208.173ZM208.173 164.634V162.683H210.124V164.634H208.173ZM208.173 166.585V164.634H210.124V166.585H208.173ZM208.173 168.537V166.585H210.124V168.537H208.173ZM208.173 170.488V168.537H210.124V170.488H208.173ZM208.173 172.439V170.488H210.124V172.439H208.173ZM208.173 174.39V172.439H210.124V174.39H208.173ZM208.173 176.341V174.39H210.124V176.341H208.173ZM208.173 178.293V176.341H210.124V178.293H208.173ZM208.173 180.244V178.293H210.124V180.244H208.173ZM208.173 182.195V180.244H210.124V182.195H208.173ZM206.221 182.195V180.244H208.173V182.195H206.221ZM206.221 180.244V178.293H208.173V180.244H206.221ZM206.221 178.293V176.341H208.173V178.293H206.221ZM206.221 176.341V174.39H208.173V176.341H206.221ZM206.221 174.39V172.439H208.173V174.39H206.221ZM206.221 172.439V170.488H208.173V172.439H206.221ZM206.221 170.488V168.537H208.173V170.488H206.221ZM204.27 168.537V166.585H206.221V168.537H204.27ZM204.27 166.585V164.634H206.221V166.585H204.27ZM204.27 164.634V162.683H206.221V164.634H204.27ZM204.27 162.683V160.732H206.221V162.683H204.27ZM204.27 160.732V158.78H206.221V160.732H204.27ZM204.27 158.78V156.829H206.221V158.78H204.27ZM204.27 156.829V154.878H206.221V156.829H204.27ZM204.27 154.878V152.927H206.221V154.878H204.27ZM202.319 154.878V152.927H204.27V154.878H202.319ZM200.368 154.878V152.927H202.319V154.878H200.368ZM200.368 156.829V154.878H202.319V156.829H200.368ZM200.368 158.78V156.829H202.319V158.78H200.368ZM200.368 160.732V158.78H202.319V160.732H200.368ZM200.368 162.683V160.732H202.319V162.683H200.368ZM200.368 164.634V162.683H202.319V164.634H200.368ZM200.368 166.585V164.634H202.319V166.585H200.368ZM200.368 168.537V166.585H202.319V168.537H200.368ZM202.319 168.537V166.585H204.27V168.537H202.319ZM202.319 170.488V168.537H204.27V170.488H202.319ZM202.319 166.585V164.634H204.27V166.585H202.319ZM202.319 164.634V162.683H204.27V164.634H202.319ZM202.319 162.683V160.732H204.27V162.683H202.319ZM202.319 160.732V158.78H204.27V160.732H202.319ZM202.319 158.78V156.829H204.27V158.78H202.319ZM202.319 156.829V154.878H204.27V156.829H202.319ZM206.221 154.878V152.927H208.173V154.878H206.221ZM206.221 156.829V154.878H208.173V156.829H206.221ZM206.221 158.78V156.829H208.173V158.78H206.221ZM206.221 160.732V158.78H208.173V160.732H206.221ZM206.221 162.683V160.732H208.173V162.683H206.221ZM206.221 164.634V162.683H208.173V164.634H206.221ZM206.221 166.585V164.634H208.173V166.585H206.221ZM206.221 168.537V166.585H208.173V168.537H206.221ZM208.173 190V188.049H210.124V190H208.173ZM208.173 188.049V186.098H210.124V188.049H208.173ZM208.173 186.098V184.146H210.124V186.098H208.173ZM208.173 184.146V182.195H210.124V184.146H208.173ZM202.319 188.049V186.098H204.27V188.049H202.319ZM202.319 186.098V184.146H204.27V186.098H202.319ZM202.319 184.146V182.195H204.27V184.146H202.319ZM202.319 182.195V180.244H204.27V182.195H202.319ZM202.319 180.244V178.293H204.27V180.244H202.319ZM202.319 178.293V176.341H204.27V178.293H202.319ZM202.319 176.341V174.39H204.27V176.341H202.319ZM200.368 174.39V172.439H202.319V174.39H200.368ZM200.368 172.439V170.488H202.319V172.439H200.368ZM200.368 170.488V168.537H202.319V170.488H200.368ZM200.368 176.341V174.39H202.319V176.341H200.368ZM200.368 178.293V176.341H202.319V178.293H200.368ZM200.368 180.244V178.293H202.319V180.244H200.368ZM200.368 182.195V180.244H202.319V182.195H200.368ZM200.368 184.146V182.195H202.319V184.146H200.368ZM200.368 186.098V184.146H202.319V186.098H200.368ZM200.368 188.049V186.098H202.319V188.049H200.368ZM200.368 190V188.049H202.319V190H200.368ZM202.319 190V188.049H204.27V190H202.319ZM204.27 190V188.049H206.221V190H204.27ZM204.27 188.049V186.098H206.221V188.049H204.27ZM206.221 186.098V184.146H208.173V186.098H206.221ZM206.221 184.146V182.195H208.173V184.146H206.221ZM206.221 188.049V186.098H208.173V188.049H206.221ZM206.221 190V188.049H208.173V190H206.221ZM204.27 186.098V184.146H206.221V186.098H204.27ZM204.27 184.146V182.195H206.221V184.146H204.27ZM204.27 182.195V180.244H206.221V182.195H204.27ZM204.27 180.244V178.293H206.221V180.244H204.27ZM204.27 178.293V176.341H206.221V178.293H204.27ZM204.27 176.341V174.39H206.221V176.341H204.27ZM204.27 174.39V172.439H206.221V174.39H204.27ZM204.27 172.439V170.488H206.221V172.439H204.27ZM204.27 170.488V168.537H206.221V170.488H204.27ZM202.319 172.439V170.488H204.27V172.439H202.319ZM202.319 174.39V172.439H204.27V174.39H202.319ZM186.709 154.878V152.927H188.66V154.878H186.709ZM184.758 154.878V152.927H186.709V154.878H184.758ZM182.807 154.878V152.927H184.758V154.878H182.807ZM180.856 154.878V152.927H182.807V154.878H180.856ZM178.904 156.829V154.878H180.856V156.829H178.904ZM178.904 158.78V156.829H180.856V158.78H178.904ZM178.904 154.878V152.927H180.856V154.878H178.904ZM180.856 156.829V154.878H182.807V156.829H180.856ZM182.807 156.829V154.878H184.758V156.829H182.807ZM184.758 156.829V154.878H186.709V156.829H184.758ZM186.709 156.829V154.878H188.66V156.829H186.709ZM186.709 158.78V156.829H188.66V158.78H186.709ZM186.709 160.732V158.78H188.66V160.732H186.709ZM184.758 160.732V158.78H186.709V160.732H184.758ZM182.807 160.732V158.78H184.758V160.732H182.807ZM180.856 160.732V158.78H182.807V160.732H180.856ZM178.904 160.732V158.78H180.856V160.732H178.904ZM180.856 158.78V156.829H182.807V158.78H180.856ZM182.807 158.78V156.829H184.758V158.78H182.807ZM184.758 158.78V156.829H186.709V158.78H184.758ZM178.904 182.195V180.244H180.856V182.195H178.904ZM180.856 182.195V180.244H182.807V182.195H180.856ZM184.758 182.195V180.244H186.709V182.195H184.758ZM184.758 180.244V178.293H186.709V180.244H184.758ZM184.758 178.293V176.341H186.709V178.293H184.758ZM186.709 176.341V174.39H188.66V176.341H186.709ZM186.709 174.39V172.439H188.66V174.39H186.709ZM186.709 172.439V170.488H188.66V172.439H186.709ZM186.709 170.488V168.537H188.66V170.488H186.709ZM186.709 168.537V166.585H188.66V168.537H186.709ZM186.709 166.585V164.634H188.66V166.585H186.709ZM186.709 164.634V162.683H188.66V164.634H186.709ZM186.709 162.683V160.732H188.66V162.683H186.709ZM184.758 162.683V160.732H186.709V162.683H184.758ZM182.807 162.683V160.732H184.758V162.683H182.807ZM180.856 162.683V160.732H182.807V162.683H180.856ZM178.904 162.683V160.732H180.856V162.683H178.904ZM178.904 164.634V162.683H180.856V164.634H178.904ZM178.904 168.537V166.585H180.856V168.537H178.904ZM178.904 170.488V168.537H180.856V170.488H178.904ZM178.904 172.439V170.488H180.856V172.439H178.904ZM178.904 174.39V172.439H180.856V174.39H178.904ZM178.904 176.341V174.39H180.856V176.341H178.904ZM178.904 178.293V176.341H180.856V178.293H178.904ZM178.904 180.244V178.293H180.856V180.244H178.904ZM180.856 172.439V170.488H182.807V172.439H180.856ZM180.856 168.537V166.585H182.807V168.537H180.856ZM180.856 166.585V164.634H182.807V166.585H180.856ZM180.856 164.634V162.683H182.807V164.634H180.856ZM178.904 166.585V164.634H180.856V166.585H178.904ZM180.856 176.341V174.39H182.807V176.341H180.856ZM182.807 176.341V174.39H184.758V176.341H182.807ZM184.758 176.341V174.39H186.709V176.341H184.758ZM184.758 174.39V172.439H186.709V174.39H184.758ZM184.758 172.439V170.488H186.709V172.439H184.758ZM184.758 170.488V168.537H186.709V170.488H184.758ZM184.758 168.537V166.585H186.709V168.537H184.758ZM184.758 166.585V164.634H186.709V166.585H184.758ZM184.758 164.634V162.683H186.709V164.634H184.758ZM182.807 164.634V162.683H184.758V164.634H182.807ZM182.807 166.585V164.634H184.758V166.585H182.807ZM182.807 168.537V166.585H184.758V168.537H182.807ZM182.807 170.488V168.537H184.758V170.488H182.807ZM182.807 172.439V170.488H184.758V172.439H182.807ZM182.807 174.39V172.439H184.758V174.39H182.807ZM180.856 174.39V172.439H182.807V174.39H180.856ZM180.856 170.488V168.537H182.807V170.488H180.856ZM180.856 178.293V176.341H182.807V178.293H180.856ZM180.856 180.244V178.293H182.807V180.244H180.856ZM182.807 180.244V178.293H184.758V180.244H182.807ZM182.807 178.293V176.341H184.758V178.293H182.807ZM186.709 178.293V176.341H188.66V178.293H186.709ZM186.709 180.244V178.293H188.66V180.244H186.709ZM186.709 182.195V180.244H188.66V182.195H186.709ZM182.807 182.195V180.244H184.758V182.195H182.807ZM186.709 190V188.049H188.66V190H186.709ZM186.709 188.049V186.098H188.66V188.049H186.709ZM184.758 188.049V186.098H186.709V188.049H184.758ZM182.807 188.049V186.098H184.758V188.049H182.807ZM182.807 186.098V184.146H184.758V186.098H182.807ZM180.856 186.098V184.146H182.807V186.098H180.856ZM180.856 184.146V182.195H182.807V184.146H180.856ZM182.807 184.146V182.195H184.758V184.146H182.807ZM184.758 184.146V182.195H186.709V184.146H184.758ZM184.758 186.098V184.146H186.709V186.098H184.758ZM186.709 186.098V184.146H188.66V186.098H186.709ZM188.66 186.098V184.146H190.612V186.098H188.66ZM188.66 184.146V182.195H190.612V184.146H188.66ZM186.709 184.146V182.195H188.66V184.146H186.709ZM188.66 182.195V180.244H190.612V182.195H188.66ZM190.612 184.146V182.195H192.563V184.146H190.612ZM190.612 186.098V184.146H192.563V186.098H190.612ZM190.612 188.049V186.098H192.563V188.049H190.612ZM190.612 190V188.049H192.563V190H190.612ZM188.66 190V188.049H190.612V190H188.66ZM188.66 188.049V186.098H190.612V188.049H188.66ZM192.563 190V188.049H194.514V190H192.563ZM192.563 188.049V186.098H194.514V188.049H192.563ZM192.563 186.098V184.146H194.514V186.098H192.563ZM192.563 184.146V182.195H194.514V184.146H192.563ZM194.514 190V188.049H196.465V190H194.514ZM194.514 188.049V186.098H196.465V188.049H194.514ZM196.465 188.049V186.098H198.417V188.049H196.465ZM196.465 186.098V184.146H198.417V186.098H196.465ZM198.417 186.098V184.146H200.368V186.098H198.417ZM198.417 184.146V182.195H200.368V184.146H198.417ZM196.465 184.146V182.195H198.417V184.146H196.465ZM194.514 184.146V182.195H196.465V184.146H194.514ZM194.514 186.098V184.146H196.465V186.098H194.514ZM196.465 190V188.049H198.417V190H196.465ZM198.417 188.049V186.098H200.368V188.049H198.417ZM200.368 180.244V182.195H198.417V180.244H200.368ZM227.721 158.78H229.672V160.732H227.721V158.78ZM227.721 156.829H229.672V158.78H227.721V156.829ZM227.721 154.878H229.672V156.829H227.721V154.878ZM229.672 154.878H231.623V156.829H229.672V154.878ZM229.672 156.829H231.623V158.78H229.672V156.829ZM231.623 156.829H233.575V158.78H231.623V156.829ZM231.623 158.78H233.575V160.732H231.623V158.78ZM229.672 158.78H231.623V160.732H229.672V158.78ZM233.575 158.78H235.526V160.732H233.575V158.78ZM233.575 156.829H235.526V158.78H233.575V156.829ZM233.575 154.878H235.526V156.829H233.575V154.878ZM233.575 152.927H235.526V154.878H233.575V152.927ZM231.623 152.927H233.575V154.878H231.623V152.927ZM231.623 154.878H233.575V156.829H231.623V154.878ZM235.526 152.927H237.477V154.878H235.526V152.927ZM237.477 152.927H239.428V154.878H237.477V152.927ZM239.428 152.927H241.38V154.878H239.428V152.927ZM239.428 154.878H241.38V156.829H239.428V154.878ZM239.428 156.829H241.38V158.78H239.428V156.829ZM239.428 158.78H241.38V160.732H239.428V158.78ZM237.477 158.78H239.428V160.732H237.477V158.78ZM235.526 158.78H237.477V160.732H235.526V158.78ZM235.526 156.829H237.477V158.78H235.526V156.829ZM235.526 154.878H237.477V156.829H235.526V154.878ZM237.477 154.878H239.428V156.829H237.477V154.878ZM237.477 156.829H239.428V158.78H237.477V156.829ZM241.38 156.829H243.331V158.78H241.38V156.829ZM241.38 154.878H243.331V156.829H241.38V154.878ZM243.331 154.878H245.282V156.829H243.331V154.878ZM243.331 156.829H245.282V158.78H243.331V156.829ZM245.282 156.829H247.233V158.78H245.282V156.829ZM245.282 158.78H247.233V160.732H245.282V158.78ZM245.282 160.732H247.233V162.683H245.282V160.732ZM243.331 160.732H245.282V162.683H243.331V160.732ZM243.331 158.78H245.282V160.732H243.331V158.78ZM241.38 158.78H243.331V160.732H241.38V158.78ZM241.38 160.732H243.331V162.683H241.38V160.732ZM239.428 160.732H241.38V162.683H239.428V160.732ZM237.477 160.732H239.428V162.683H237.477V160.732ZM247.233 160.732H249.184V162.683H247.233V160.732ZM247.233 162.683H249.184V164.634H247.233V162.683ZM247.233 164.634H249.184V166.585H247.233V164.634ZM247.233 166.585H249.184V168.537H247.233V166.585ZM247.233 168.537H249.184V170.488H247.233V168.537ZM247.233 170.488H249.184V172.439H247.233V170.488ZM247.233 172.439H249.184V174.39H247.233V172.439ZM247.233 174.39H249.184V176.341H247.233V174.39ZM247.233 176.341H249.184V178.293H247.233V176.341ZM247.233 178.293H249.184V180.244H247.233V178.293ZM245.282 178.293H247.233V180.244H245.282V178.293ZM245.282 180.244H247.233V182.195H245.282V180.244ZM247.233 180.244H249.184V182.195H247.233V180.244ZM243.331 180.244H245.282V182.195H243.331V180.244ZM241.38 180.244H243.331V182.195H241.38V180.244ZM239.428 180.244H241.38V182.195H239.428V180.244ZM237.477 180.244H239.428V182.195H237.477V180.244ZM239.428 178.293H241.38V180.244H239.428V178.293ZM239.428 176.341H241.38V178.293H239.428V176.341ZM239.428 174.39H241.38V176.341H239.428V174.39ZM239.428 172.439H241.38V174.39H239.428V172.439ZM239.428 170.488H241.38V172.439H239.428V170.488ZM239.428 168.537H241.38V170.488H239.428V168.537ZM239.428 166.585H241.38V168.537H239.428V166.585ZM239.428 164.634H241.38V166.585H239.428V164.634ZM239.428 162.683H241.38V164.634H239.428V162.683ZM241.38 162.683H243.331V164.634H241.38V162.683ZM243.331 162.683H245.282V164.634H243.331V162.683ZM245.282 162.683H247.233V164.634H245.282V162.683ZM245.282 164.634H247.233V166.585H245.282V164.634ZM245.282 166.585H247.233V168.537H245.282V166.585ZM245.282 168.537H247.233V170.488H245.282V168.537ZM245.282 170.488H247.233V172.439H245.282V170.488ZM245.282 172.439H247.233V174.39H245.282V172.439ZM245.282 174.39H247.233V176.341H245.282V174.39ZM245.282 176.341H247.233V178.293H245.282V176.341ZM243.331 178.293H245.282V180.244H243.331V178.293ZM241.38 178.293H243.331V180.244H241.38V178.293ZM241.38 176.341H243.331V178.293H241.38V176.341ZM241.38 174.39H243.331V176.341H241.38V174.39ZM241.38 172.439H243.331V174.39H241.38V172.439ZM241.38 170.488H243.331V172.439H241.38V170.488ZM243.331 170.488H245.282V172.439H243.331V170.488ZM243.331 168.537H245.282V170.488H243.331V168.537ZM243.331 166.585H245.282V168.537H243.331V166.585ZM243.331 164.634H245.282V166.585H243.331V164.634ZM241.38 164.634H243.331V166.585H241.38V164.634ZM241.38 166.585H243.331V168.537H241.38V166.585ZM241.38 168.537H243.331V170.488H241.38V168.537ZM243.331 174.39H245.282V176.341H243.331V174.39ZM243.331 176.341H245.282V178.293H243.331V176.341ZM243.331 172.439H245.282V174.39H243.331V172.439ZM227.721 182.195H229.672V184.146H227.721V182.195ZM229.672 188.049H231.623V190H229.672V188.049ZM231.623 188.049H233.575V190H231.623V188.049ZM233.575 188.049H235.526V190H233.575V188.049ZM235.526 188.049H237.477V190H235.526V188.049ZM237.477 188.049H239.428V190H237.477V188.049ZM239.428 188.049H241.38V190H239.428V188.049ZM237.477 186.098H239.428V188.049H237.477V186.098ZM235.526 186.098H237.477V188.049H235.526V186.098ZM233.575 186.098H235.526V188.049H233.575V186.098ZM231.623 186.098H233.575V188.049H231.623V186.098ZM229.672 186.098H231.623V188.049H229.672V186.098ZM227.721 186.098H229.672V188.049H227.721V186.098ZM227.721 184.146H229.672V186.098H227.721V184.146ZM229.672 184.146H231.623V186.098H229.672V184.146ZM231.623 184.146H233.575V186.098H231.623V184.146ZM233.575 184.146H235.526V186.098H233.575V184.146ZM235.526 184.146H237.477V186.098H235.526V184.146ZM237.477 184.146H239.428V186.098H237.477V184.146ZM239.428 186.098H241.38V188.049H239.428V186.098ZM241.38 186.098H243.331V188.049H241.38V186.098ZM243.331 186.098H245.282V188.049H243.331V186.098ZM243.331 184.146H245.282V186.098H243.331V184.146ZM245.282 184.146H247.233V186.098H245.282V184.146ZM245.282 182.195H247.233V184.146H245.282V182.195ZM243.331 182.195H245.282V184.146H243.331V182.195ZM241.38 182.195H243.331V184.146H241.38V182.195ZM239.428 182.195H241.38V184.146H239.428V182.195ZM237.477 182.195H239.428V184.146H237.477V182.195ZM235.526 182.195H237.477V184.146H235.526V182.195ZM233.575 182.195H235.526V184.146H233.575V182.195ZM231.623 182.195H233.575V184.146H231.623V182.195ZM229.672 182.195H231.623V184.146H229.672V182.195ZM239.428 184.146H241.38V186.098H239.428V184.146ZM241.38 184.146H243.331V186.098H241.38V184.146ZM225.77 184.146H227.721V186.098H225.77V184.146ZM225.77 182.195H227.721V184.146H225.77V182.195ZM225.77 180.244H227.721V182.195H225.77V180.244ZM225.77 178.293H227.721V180.244H225.77V178.293ZM225.77 176.341H227.721V178.293H225.77V176.341ZM225.77 174.39H227.721V176.341H225.77V174.39ZM225.77 172.439H227.721V174.39H225.77V172.439ZM225.77 170.488H227.721V172.439H225.77V170.488ZM225.77 168.537H227.721V170.488H225.77V168.537ZM225.77 166.585H227.721V168.537H225.77V166.585ZM225.77 164.634H227.721V166.585H225.77V164.634ZM225.77 162.683H227.721V164.634H225.77V162.683ZM225.77 160.732H227.721V162.683H225.77V160.732ZM223.819 160.732H225.77V162.683H223.819V160.732ZM223.819 162.683H225.77V164.634H223.819V162.683ZM223.819 164.634H225.77V166.585H223.819V164.634ZM223.819 166.585H225.77V168.537H223.819V166.585ZM223.819 168.537H225.77V170.488H223.819V168.537ZM223.819 170.488H225.77V172.439H223.819V170.488ZM223.819 172.439H225.77V174.39H223.819V172.439ZM221.867 174.39H223.819V176.341H221.867V174.39ZM221.867 176.341H223.819V178.293H221.867V176.341ZM221.867 178.293H223.819V180.244H221.867V178.293ZM221.867 180.244H223.819V182.195H221.867V180.244ZM221.867 182.195H223.819V184.146H221.867V182.195ZM221.867 184.146H223.819V186.098H221.867V184.146ZM221.867 186.098H223.819V188.049H221.867V186.098ZM221.867 188.049H223.819V190H221.867V188.049ZM219.916 188.049H221.867V190H219.916V188.049ZM217.965 188.049H219.916V190H217.965V188.049ZM217.965 186.098H219.916V188.049H217.965V186.098ZM217.965 184.146H219.916V186.098H217.965V184.146ZM217.965 182.195H219.916V184.146H217.965V182.195ZM217.965 180.244H219.916V182.195H217.965V180.244ZM217.965 178.293H219.916V180.244H217.965V178.293ZM217.965 176.341H219.916V178.293H217.965V176.341ZM217.965 174.39H219.916V176.341H217.965V174.39ZM219.916 174.39H221.867V176.341H219.916V174.39ZM219.916 172.439H221.867V174.39H219.916V172.439ZM219.916 176.341H221.867V178.293H219.916V176.341ZM219.916 178.293H221.867V180.244H219.916V178.293ZM219.916 180.244H221.867V182.195H219.916V180.244ZM219.916 182.195H221.867V184.146H219.916V182.195ZM219.916 184.146H221.867V186.098H219.916V184.146ZM219.916 186.098H221.867V188.049H219.916V186.098ZM223.819 184.146H225.77V186.098H223.819V184.146ZM223.819 182.195H225.77V184.146H223.819V182.195ZM223.819 180.244H225.77V182.195H223.819V180.244ZM223.819 178.293H225.77V180.244H223.819V178.293ZM223.819 176.341H225.77V178.293H223.819V176.341ZM223.819 174.39H225.77V176.341H223.819V174.39ZM225.77 190H227.721V191.951H225.77V190ZM225.77 191.951H227.721V193.902H225.77V191.951ZM225.77 193.902H227.721V195.854H225.77V193.902ZM225.77 195.854H227.721V197.805H225.77V195.854ZM225.77 197.805H227.721V199.756H225.77V197.805ZM225.77 199.756H227.721V201.707H225.77V199.756ZM225.77 154.878H227.721V156.829H225.77V154.878ZM225.77 158.78H227.721V160.732H225.77V158.78ZM219.916 190H221.867V191.951H219.916V190ZM219.916 191.951H221.867V193.902H219.916V191.951ZM219.916 193.902H221.867V195.854H219.916V193.902ZM219.916 195.854H221.867V197.805H219.916V195.854ZM219.916 197.805H221.867V199.756H219.916V197.805ZM219.916 199.756H221.867V201.707H219.916V199.756ZM219.916 154.878H221.867V156.829H219.916V154.878ZM219.916 156.829H221.867V158.78H219.916V156.829ZM219.916 158.78H221.867V160.732H219.916V158.78ZM219.916 162.683H221.867V164.634H219.916V162.683ZM219.916 164.634H221.867V166.585H219.916V164.634ZM219.916 166.585H221.867V168.537H219.916V166.585ZM217.965 168.537H219.916V170.488H217.965V168.537ZM217.965 170.488H219.916V172.439H217.965V170.488ZM217.965 172.439H219.916V174.39H217.965V172.439ZM217.965 166.585H219.916V168.537H217.965V166.585ZM217.965 164.634H219.916V166.585H217.965V164.634ZM217.965 160.732H219.916V162.683H217.965V160.732ZM217.965 158.78H219.916V160.732H217.965V158.78ZM217.965 156.829H219.916V158.78H217.965V156.829ZM217.965 154.878H219.916V156.829H217.965V154.878ZM217.965 152.927H219.916V154.878H217.965V152.927ZM217.965 199.756H219.916V201.707H217.965V199.756ZM217.965 197.805H219.916V199.756H217.965V197.805ZM219.916 152.927H221.867V154.878H219.916V152.927ZM217.965 195.854H219.916V197.805H217.965V195.854ZM217.965 193.902H219.916V195.854H217.965V193.902ZM217.965 191.951H219.916V193.902H217.965V191.951ZM217.965 190H219.916V191.951H217.965V190ZM221.867 190H223.819V191.951H221.867V190ZM223.819 190H225.77V191.951H223.819V190ZM223.819 191.951H225.77V193.902H223.819V191.951ZM221.867 191.951H223.819V193.902H221.867V191.951ZM221.867 193.902H223.819V195.854H221.867V193.902ZM221.867 195.854H223.819V197.805H221.867V195.854ZM221.867 197.805H223.819V199.756H221.867V197.805ZM221.867 199.756H223.819V201.707H221.867V199.756ZM221.867 152.927H223.819V154.878H221.867V152.927ZM221.867 154.878H223.819V156.829H221.867V154.878ZM223.819 156.829H225.77V158.78H223.819V156.829ZM223.819 158.78H225.77V160.732H223.819V158.78ZM223.819 154.878H225.77V156.829H223.819V154.878ZM223.819 152.927H225.77V154.878H223.819V152.927ZM223.819 199.756H225.77V201.707H223.819V199.756ZM223.819 197.805H225.77V199.756H223.819V197.805ZM223.819 195.854H225.77V197.805H223.819V195.854ZM223.819 193.902H225.77V195.854H223.819V193.902ZM221.867 158.78H223.819V160.732H221.867V158.78ZM221.867 162.683H223.819V164.634H221.867V162.683ZM221.867 164.634H223.819V166.585H221.867V164.634ZM221.867 166.585H223.819V168.537H221.867V166.585ZM221.867 168.537H223.819V170.488H221.867V168.537ZM221.867 170.488H223.819V172.439H221.867V170.488ZM221.867 172.439H223.819V174.39H221.867V172.439ZM219.916 170.488H221.867V172.439H219.916V170.488ZM219.916 168.537H221.867V170.488H219.916V168.537ZM225.77 152.927H227.721V154.878H225.77V152.927ZM217.965 162.683H219.916V164.634H217.965V162.683ZM225.77 156.829H227.721V158.78H225.77V156.829ZM221.867 156.829H223.819V158.78H221.867V156.829ZM221.867 160.732H223.819V162.683H221.867V160.732ZM219.916 160.732H221.867V162.683H219.916V160.732ZM225.77 186.098H227.721V188.049H225.77V186.098ZM223.819 186.098H225.77V188.049H223.819V186.098ZM223.819 188.049H225.77V190H223.819V188.049ZM231.623 152.927V154.878H229.672V152.927H231.623ZM227.721 188.049V190H225.77V188.049H227.721ZM229.672 160.732V162.683H227.721V160.732H229.672ZM229.672 188.049V190H227.721V188.049H229.672ZM264.83 158.78H266.782V160.732H264.83V158.78ZM264.83 156.829H266.782V158.78H264.83V156.829ZM264.83 154.878H266.782V156.829H264.83V154.878ZM266.782 154.878H268.733V156.829H266.782V154.878ZM266.782 156.829H268.733V158.78H266.782V156.829ZM268.733 156.829H270.684V158.78H268.733V156.829ZM268.733 158.78H270.684V160.732H268.733V158.78ZM266.782 158.78H268.733V160.732H266.782V158.78ZM270.684 158.78H272.635V160.732H270.684V158.78ZM270.684 156.829H272.635V158.78H270.684V156.829ZM270.684 154.878H272.635V156.829H270.684V154.878ZM270.684 152.927H272.635V154.878H270.684V152.927ZM268.733 152.927H270.684V154.878H268.733V152.927ZM268.733 154.878H270.684V156.829H268.733V154.878ZM272.635 152.927H274.587V154.878H272.635V152.927ZM274.587 152.927H276.538V154.878H274.587V152.927ZM276.538 152.927H278.489V154.878H276.538V152.927ZM276.538 154.878H278.489V156.829H276.538V154.878ZM276.538 156.829H278.489V158.78H276.538V156.829ZM276.538 158.78H278.489V160.732H276.538V158.78ZM274.587 158.78H276.538V160.732H274.587V158.78ZM272.635 158.78H274.587V160.732H272.635V158.78ZM272.635 156.829H274.587V158.78H272.635V156.829ZM272.635 154.878H274.587V156.829H272.635V154.878ZM274.587 154.878H276.538V156.829H274.587V154.878ZM274.587 156.829H276.538V158.78H274.587V156.829ZM278.489 156.829H280.44V158.78H278.489V156.829ZM278.489 154.878H280.44V156.829H278.489V154.878ZM280.44 154.878H282.391V156.829H280.44V154.878ZM280.44 156.829H282.391V158.78H280.44V156.829ZM282.391 156.829H284.343V158.78H282.391V156.829ZM282.391 158.78H284.343V160.732H282.391V158.78ZM282.391 160.732H284.343V162.683H282.391V160.732ZM280.44 160.732H282.391V162.683H280.44V160.732ZM280.44 158.78H282.391V160.732H280.44V158.78ZM278.489 158.78H280.44V160.732H278.489V158.78ZM278.489 160.732H280.44V162.683H278.489V160.732ZM276.538 160.732H278.489V162.683H276.538V160.732ZM274.587 160.732H276.538V162.683H274.587V160.732ZM284.343 160.732H286.294V162.683H284.343V160.732ZM284.343 162.683H286.294V164.634H284.343V162.683ZM284.343 164.634H286.294V166.585H284.343V164.634ZM284.343 166.585H286.294V168.537H284.343V166.585ZM284.343 168.537H286.294V170.488H284.343V168.537ZM284.343 170.488H286.294V172.439H284.343V170.488ZM284.343 172.439H286.294V174.39H284.343V172.439ZM284.343 174.39H286.294V176.341H284.343V174.39ZM284.343 176.341H286.294V178.293H284.343V176.341ZM284.343 178.293H286.294V180.244H284.343V178.293ZM282.391 178.293H284.343V180.244H282.391V178.293ZM282.391 180.244H284.343V182.195H282.391V180.244ZM284.343 180.244H286.294V182.195H284.343V180.244ZM280.44 180.244H282.391V182.195H280.44V180.244ZM278.489 180.244H280.44V182.195H278.489V180.244ZM276.538 180.244H278.489V182.195H276.538V180.244ZM274.587 180.244H276.538V182.195H274.587V180.244ZM276.538 178.293H278.489V180.244H276.538V178.293ZM276.538 176.341H278.489V178.293H276.538V176.341ZM276.538 174.39H278.489V176.341H276.538V174.39ZM276.538 172.439H278.489V174.39H276.538V172.439ZM276.538 170.488H278.489V172.439H276.538V170.488ZM276.538 168.537H278.489V170.488H276.538V168.537ZM276.538 166.585H278.489V168.537H276.538V166.585ZM276.538 164.634H278.489V166.585H276.538V164.634ZM276.538 162.683H278.489V164.634H276.538V162.683ZM278.489 162.683H280.44V164.634H278.489V162.683ZM280.44 162.683H282.391V164.634H280.44V162.683ZM282.391 162.683H284.343V164.634H282.391V162.683ZM282.391 164.634H284.343V166.585H282.391V164.634ZM282.391 166.585H284.343V168.537H282.391V166.585ZM282.391 168.537H284.343V170.488H282.391V168.537ZM282.391 170.488H284.343V172.439H282.391V170.488ZM282.391 172.439H284.343V174.39H282.391V172.439ZM282.391 174.39H284.343V176.341H282.391V174.39ZM282.391 176.341H284.343V178.293H282.391V176.341ZM280.44 178.293H282.391V180.244H280.44V178.293ZM278.489 178.293H280.44V180.244H278.489V178.293ZM278.489 176.341H280.44V178.293H278.489V176.341ZM278.489 174.39H280.44V176.341H278.489V174.39ZM278.489 172.439H280.44V174.39H278.489V172.439ZM278.489 170.488H280.44V172.439H278.489V170.488ZM280.44 170.488H282.391V172.439H280.44V170.488ZM280.44 168.537H282.391V170.488H280.44V168.537ZM280.44 166.585H282.391V168.537H280.44V166.585ZM280.44 164.634H282.391V166.585H280.44V164.634ZM278.489 164.634H280.44V166.585H278.489V164.634ZM278.489 166.585H280.44V168.537H278.489V166.585ZM278.489 168.537H280.44V170.488H278.489V168.537ZM280.44 174.39H282.391V176.341H280.44V174.39ZM280.44 176.341H282.391V178.293H280.44V176.341ZM280.44 172.439H282.391V174.39H280.44V172.439ZM264.83 182.195H266.782V184.146H264.83V182.195ZM266.782 188.049H268.733V190H266.782V188.049ZM268.733 188.049H270.684V190H268.733V188.049ZM270.684 188.049H272.635V190H270.684V188.049ZM272.635 188.049H274.587V190H272.635V188.049ZM274.587 188.049H276.538V190H274.587V188.049ZM276.538 188.049H278.489V190H276.538V188.049ZM274.587 186.098H276.538V188.049H274.587V186.098ZM272.635 186.098H274.587V188.049H272.635V186.098ZM270.684 186.098H272.635V188.049H270.684V186.098ZM268.733 186.098H270.684V188.049H268.733V186.098ZM266.782 186.098H268.733V188.049H266.782V186.098ZM264.83 186.098H266.782V188.049H264.83V186.098ZM264.83 184.146H266.782V186.098H264.83V184.146ZM266.782 184.146H268.733V186.098H266.782V184.146ZM268.733 184.146H270.684V186.098H268.733V184.146ZM270.684 184.146H272.635V186.098H270.684V184.146ZM272.635 184.146H274.587V186.098H272.635V184.146ZM274.587 184.146H276.538V186.098H274.587V184.146ZM276.538 186.098H278.489V188.049H276.538V186.098ZM278.489 186.098H280.44V188.049H278.489V186.098ZM280.44 186.098H282.391V188.049H280.44V186.098ZM280.44 184.146H282.391V186.098H280.44V184.146ZM282.391 184.146H284.343V186.098H282.391V184.146ZM282.391 182.195H284.343V184.146H282.391V182.195ZM280.44 182.195H282.391V184.146H280.44V182.195ZM278.489 182.195H280.44V184.146H278.489V182.195ZM276.538 182.195H278.489V184.146H276.538V182.195ZM274.587 182.195H276.538V184.146H274.587V182.195ZM272.635 182.195H274.587V184.146H272.635V182.195ZM270.684 182.195H272.635V184.146H270.684V182.195ZM268.733 182.195H270.684V184.146H268.733V182.195ZM266.782 182.195H268.733V184.146H266.782V182.195ZM276.538 184.146H278.489V186.098H276.538V184.146ZM278.489 184.146H280.44V186.098H278.489V184.146ZM262.879 184.146H264.83V186.098H262.879V184.146ZM262.879 182.195H264.83V184.146H262.879V182.195ZM262.879 180.244H264.83V182.195H262.879V180.244ZM262.879 178.293H264.83V180.244H262.879V178.293ZM262.879 176.341H264.83V178.293H262.879V176.341ZM262.879 174.39H264.83V176.341H262.879V174.39ZM262.879 172.439H264.83V174.39H262.879V172.439ZM262.879 170.488H264.83V172.439H262.879V170.488ZM262.879 168.537H264.83V170.488H262.879V168.537ZM262.879 166.585H264.83V168.537H262.879V166.585ZM262.879 164.634H264.83V166.585H262.879V164.634ZM262.879 162.683H264.83V164.634H262.879V162.683ZM262.879 160.732H264.83V162.683H262.879V160.732ZM260.928 160.732H262.879V162.683H260.928V160.732ZM260.928 162.683H262.879V164.634H260.928V162.683ZM260.928 164.634H262.879V166.585H260.928V164.634ZM260.928 166.585H262.879V168.537H260.928V166.585ZM260.928 168.537H262.879V170.488H260.928V168.537ZM260.928 170.488H262.879V172.439H260.928V170.488ZM260.928 172.439H262.879V174.39H260.928V172.439ZM258.977 174.39H260.928V176.341H258.977V174.39ZM258.977 176.341H260.928V178.293H258.977V176.341ZM258.977 178.293H260.928V180.244H258.977V178.293ZM258.977 180.244H260.928V182.195H258.977V180.244ZM258.977 182.195H260.928V184.146H258.977V182.195ZM258.977 184.146H260.928V186.098H258.977V184.146ZM258.977 186.098H260.928V188.049H258.977V186.098ZM258.977 188.049H260.928V190H258.977V188.049ZM257.026 188.049H258.977V190H257.026V188.049ZM255.074 188.049H257.026V190H255.074V188.049ZM255.074 186.098H257.026V188.049H255.074V186.098ZM255.074 184.146H257.026V186.098H255.074V184.146ZM255.074 182.195H257.026V184.146H255.074V182.195ZM255.074 180.244H257.026V182.195H255.074V180.244ZM255.074 178.293H257.026V180.244H255.074V178.293ZM255.074 176.341H257.026V178.293H255.074V176.341ZM255.074 174.39H257.026V176.341H255.074V174.39ZM257.026 174.39H258.977V176.341H257.026V174.39ZM257.026 172.439H258.977V174.39H257.026V172.439ZM257.026 176.341H258.977V178.293H257.026V176.341ZM257.026 178.293H258.977V180.244H257.026V178.293ZM257.026 180.244H258.977V182.195H257.026V180.244ZM257.026 182.195H258.977V184.146H257.026V182.195ZM257.026 184.146H258.977V186.098H257.026V184.146ZM257.026 186.098H258.977V188.049H257.026V186.098ZM260.928 184.146H262.879V186.098H260.928V184.146ZM260.928 182.195H262.879V184.146H260.928V182.195ZM260.928 180.244H262.879V182.195H260.928V180.244ZM260.928 178.293H262.879V180.244H260.928V178.293ZM260.928 176.341H262.879V178.293H260.928V176.341ZM260.928 174.39H262.879V176.341H260.928V174.39ZM262.879 190H264.83V191.951H262.879V190ZM262.879 191.951H264.83V193.902H262.879V191.951ZM262.879 193.902H264.83V195.854H262.879V193.902ZM262.879 195.854H264.83V197.805H262.879V195.854ZM262.879 197.805H264.83V199.756H262.879V197.805ZM262.879 199.756H264.83V201.707H262.879V199.756ZM262.879 154.878H264.83V156.829H262.879V154.878ZM262.879 158.78H264.83V160.732H262.879V158.78ZM257.026 190H258.977V191.951H257.026V190ZM257.026 191.951H258.977V193.902H257.026V191.951ZM257.026 193.902H258.977V195.854H257.026V193.902ZM257.026 195.854H258.977V197.805H257.026V195.854ZM257.026 197.805H258.977V199.756H257.026V197.805ZM257.026 199.756H258.977V201.707H257.026V199.756ZM257.026 154.878H258.977V156.829H257.026V154.878ZM257.026 156.829H258.977V158.78H257.026V156.829ZM257.026 158.78H258.977V160.732H257.026V158.78ZM257.026 162.683H258.977V164.634H257.026V162.683ZM257.026 164.634H258.977V166.585H257.026V164.634ZM257.026 166.585H258.977V168.537H257.026V166.585ZM255.074 168.537H257.026V170.488H255.074V168.537ZM255.074 170.488H257.026V172.439H255.074V170.488ZM255.074 172.439H257.026V174.39H255.074V172.439ZM255.074 166.585H257.026V168.537H255.074V166.585ZM255.074 164.634H257.026V166.585H255.074V164.634ZM255.074 160.732H257.026V162.683H255.074V160.732ZM255.074 158.78H257.026V160.732H255.074V158.78ZM255.074 156.829H257.026V158.78H255.074V156.829ZM255.074 154.878H257.026V156.829H255.074V154.878ZM255.074 152.927H257.026V154.878H255.074V152.927ZM255.074 199.756H257.026V201.707H255.074V199.756ZM255.074 197.805H257.026V199.756H255.074V197.805ZM257.026 152.927H258.977V154.878H257.026V152.927ZM255.074 195.854H257.026V197.805H255.074V195.854ZM255.074 193.902H257.026V195.854H255.074V193.902ZM255.074 191.951H257.026V193.902H255.074V191.951ZM255.074 190H257.026V191.951H255.074V190ZM258.977 190H260.928V191.951H258.977V190ZM260.928 190H262.879V191.951H260.928V190ZM260.928 191.951H262.879V193.902H260.928V191.951ZM258.977 191.951H260.928V193.902H258.977V191.951ZM258.977 193.902H260.928V195.854H258.977V193.902ZM258.977 195.854H260.928V197.805H258.977V195.854ZM258.977 197.805H260.928V199.756H258.977V197.805ZM258.977 199.756H260.928V201.707H258.977V199.756ZM258.977 152.927H260.928V154.878H258.977V152.927ZM258.977 154.878H260.928V156.829H258.977V154.878ZM260.928 156.829H262.879V158.78H260.928V156.829ZM260.928 158.78H262.879V160.732H260.928V158.78ZM260.928 154.878H262.879V156.829H260.928V154.878ZM260.928 152.927H262.879V154.878H260.928V152.927ZM260.928 199.756H262.879V201.707H260.928V199.756ZM260.928 197.805H262.879V199.756H260.928V197.805ZM260.928 195.854H262.879V197.805H260.928V195.854ZM260.928 193.902H262.879V195.854H260.928V193.902ZM258.977 158.78H260.928V160.732H258.977V158.78ZM258.977 162.683H260.928V164.634H258.977V162.683ZM258.977 164.634H260.928V166.585H258.977V164.634ZM258.977 166.585H260.928V168.537H258.977V166.585ZM258.977 168.537H260.928V170.488H258.977V168.537ZM258.977 170.488H260.928V172.439H258.977V170.488ZM258.977 172.439H260.928V174.39H258.977V172.439ZM257.026 170.488H258.977V172.439H257.026V170.488ZM257.026 168.537H258.977V170.488H257.026V168.537ZM262.879 152.927H264.83V154.878H262.879V152.927ZM255.074 162.683H257.026V164.634H255.074V162.683ZM262.879 156.829H264.83V158.78H262.879V156.829ZM258.977 156.829H260.928V158.78H258.977V156.829ZM258.977 160.732H260.928V162.683H258.977V160.732ZM257.026 160.732H258.977V162.683H257.026V160.732ZM262.879 186.098H264.83V188.049H262.879V186.098ZM260.928 186.098H262.879V188.049H260.928V186.098ZM260.928 188.049H262.879V190H260.928V188.049ZM268.733 152.927V154.878H266.782V152.927H268.733ZM264.83 188.049V190H262.879V188.049H264.83ZM266.782 160.732V162.683H264.83V160.732H266.782ZM266.782 188.049V190H264.83V188.049H266.782Z" fill="black"/>
<path d="M95.6579 151.738C86.9956 140.798 85.3617 139.654 85.4771 135.731C85.6352 130.356 91.0739 126.156 97.6248 126.349C104.176 126.542 109.358 131.054 109.2 136.428C109.085 140.352 107.386 141.398 98.0959 151.809C97.4863 152.49 96.2263 152.453 95.6579 151.738ZM97.2193 140.134C99.9488 140.214 102.215 138.464 102.281 136.225C102.347 133.986 100.187 132.105 97.4578 132.025C94.7283 131.945 92.4622 133.695 92.3963 135.934C92.3304 138.173 94.4897 140.054 97.2193 140.134Z" fill="#F30808"/>
</svg>
